<svg width="28" height="30" viewBox="0 0 28 30" fill="none" xmlns="http://www.w3.org/2000/svg">
<path d="M24.4871 15.8398L14.1343 25.0978L3.80086 15.4969C3.60592 15.3168 3.38097 15.1811 3.13886 15.0977C2.89674 15.0142 2.64221 14.9845 2.38979 15.0104C2.13738 15.0363 1.89201 15.1172 1.66771 15.2484C1.44341 15.3797 1.24457 15.5588 1.08254 15.7755C0.92051 15.9922 0.798463 16.2423 0.723367 16.5114C0.648272 16.7805 0.621598 17.0635 0.644871 17.3441C0.668144 17.6247 0.740907 17.8974 0.859005 18.1467C0.977102 18.3961 1.13822 18.6171 1.33317 18.7972L12.9005 29.5125C13.2454 29.8277 13.6781 30 14.1247 30C14.5712 30 15.0039 29.8277 15.3489 29.5125L26.9162 19.1615C27.1143 18.9847 27.2789 18.7661 27.4007 18.5183C27.5225 18.2704 27.599 17.9983 27.6259 17.7175C27.6528 17.4367 27.6295 17.1528 27.5573 16.882C27.4851 16.6113 27.3655 16.359 27.2054 16.1398C27.0449 15.9213 26.8472 15.7401 26.6236 15.6066C26.4 15.4732 26.1548 15.3902 25.9023 15.3623C25.6497 15.3344 25.3947 15.3623 25.1518 15.4442C24.909 15.5261 24.6831 15.6606 24.4871 15.8398Z" fill="#00D4FF"/>
<path d="M12.9005 14.5111C13.2454 14.8263 13.6781 14.9987 14.1247 14.9987C14.5712 14.9987 15.0039 14.8263 15.3489 14.5111L26.9162 4.1602C27.1143 3.98335 27.2789 3.76474 27.4007 3.51692C27.5225 3.26911 27.599 2.99698 27.6259 2.71618C27.6528 2.43538 27.6295 2.15144 27.5573 1.88069C27.4851 1.60994 27.3655 1.35771 27.2054 1.1385C27.0463 0.918352 26.8496 0.735325 26.6267 0.59994C26.4038 0.464556 26.159 0.379482 25.9064 0.34961C25.6537 0.319737 25.3983 0.345655 25.1548 0.425873C24.9112 0.506091 24.6843 0.639028 24.4871 0.817043L14.1343 10.0965L3.80087 0.495585C3.40716 0.131827 2.89958 -0.0431787 2.3898 0.00906832C1.88002 0.0613153 1.40978 0.336535 1.08255 0.774182C0.75531 1.21183 0.597875 1.77605 0.644877 2.34273C0.691878 2.90941 0.939466 3.43212 1.33317 3.79588L12.9005 14.5111Z" fill="#00D4FF"/>
</svg>
