<?xml version="1.0" encoding="utf-8"?>
<!-- Generator: Adobe Illustrator 19.0.0, SVG Export Plug-In . SVG Version: 6.00 Build 0)  -->
<svg version="1.1" id="Layer_1" xmlns="http://www.w3.org/2000/svg" xmlns:xlink="http://www.w3.org/1999/xlink" x="0px" y="0px"
	 viewBox="-291 382 28 30" style="enable-background:new -291 382 28 30;" xml:space="preserve">
<style type="text/css">
	.st0{fill:#00D4FF;}
</style>
<path class="st0" d="M-287.2,411.2l10.4-9.3l10.3,9.6c0.2,0.2,0.4,0.3,0.7,0.4c0.2,0.1,0.5,0.1,0.7,0.1c0.3,0,0.5-0.1,0.7-0.2
	c0.2-0.1,0.4-0.3,0.6-0.5c0.2-0.2,0.3-0.5,0.4-0.7c0.1-0.3,0.1-0.6,0.1-0.8c0-0.3-0.1-0.6-0.2-0.8c-0.1-0.2-0.3-0.5-0.5-0.7
	l-11.6-10.7c-0.3-0.3-0.8-0.5-1.2-0.5c-0.4,0-0.9,0.2-1.2,0.5l-11.6,10.4c-0.2,0.2-0.4,0.4-0.5,0.6c-0.1,0.2-0.2,0.5-0.2,0.8
	c0,0.3,0,0.6,0.1,0.8c0.1,0.3,0.2,0.5,0.4,0.7c0.2,0.2,0.4,0.4,0.6,0.5c0.2,0.1,0.5,0.2,0.7,0.2c0.3,0,0.5,0,0.8-0.1
	C-287.6,411.5-287.4,411.3-287.2,411.2z"/>
<path class="st0" d="M-275.6,382.5c-0.3-0.3-0.8-0.5-1.2-0.5c-0.4,0-0.9,0.2-1.2,0.5l-11.6,10.4c-0.2,0.2-0.4,0.4-0.5,0.6
	c-0.1,0.2-0.2,0.5-0.2,0.8c0,0.3,0,0.6,0.1,0.8s0.2,0.5,0.4,0.7c0.2,0.2,0.4,0.4,0.6,0.5c0.2,0.1,0.5,0.2,0.7,0.3
	c0.3,0,0.5,0,0.8-0.1c0.2-0.1,0.5-0.2,0.7-0.4l10.4-9.3l10.3,9.6c0.4,0.4,0.9,0.5,1.4,0.5c0.5-0.1,1-0.3,1.3-0.8s0.5-1,0.4-1.6
	s-0.3-1.1-0.7-1.5L-275.6,382.5z"/>
</svg>
